<svg xmlns="http://www.w3.org/2000/svg" width="768" height="512" viewBox="0 0 768 512">
  <rect width="768" height="512" fill="none"/>

  <!-- tree_large 0,0,120,160 -->
  <g transform="translate(0 0)">
    <ellipse cx="60" cy="146" rx="52" ry="12" fill="#d7e58f" opacity="0.6"/>
    <rect x="52" y="74" width="16" height="76" rx="6" fill="#7e5534"/>
    <circle cx="60" cy="54" r="44" fill="#68ab4f"/>
    <circle cx="36" cy="66" r="28" fill="#7ecb5a"/>
    <circle cx="84" cy="66" r="28" fill="#7ecb5a"/>
    <circle cx="60" cy="80" r="26" fill="#5f984a"/>
  </g>

  <!-- tree_small 120,0,96,132 -->
  <g transform="translate(120 0)">
    <ellipse cx="48" cy="122" rx="40" ry="10" fill="#d7e58f" opacity="0.55"/>
    <rect x="42" y="62" width="12" height="58" rx="5" fill="#785230"/>
    <circle cx="48" cy="44" r="32" fill="#6db256"/>
    <circle cx="29" cy="54" r="20" fill="#84cd63"/>
    <circle cx="67" cy="54" r="20" fill="#84cd63"/>
  </g>

  <!-- sky_cloud 216,0,140,72 -->
  <g transform="translate(216 0)">
    <rect x="0" y="0" width="140" height="72" rx="8" fill="#76c8f8"/>
    <ellipse cx="34" cy="42" rx="22" ry="14" fill="#ffffff" opacity="0.95"/>
    <ellipse cx="60" cy="36" rx="22" ry="16" fill="#f7fdff"/>
    <ellipse cx="86" cy="42" rx="22" ry="14" fill="#ffffff" opacity="0.95"/>
    <ellipse cx="112" cy="38" rx="16" ry="11" fill="#f2fbff"/>
  </g>

  <!-- hut_small 360,0,132,106 -->
  <g transform="translate(360 0)">
    <ellipse cx="66" cy="98" rx="54" ry="8" fill="#dfe6a6" opacity="0.55"/>
    <rect x="20" y="42" width="92" height="50" rx="4" fill="#7e5b3e"/>
    <rect x="24" y="46" width="84" height="42" rx="4" fill="#8f6a46"/>
    <polygon points="12,46 66,14 120,46" fill="#b58b55"/>
    <polygon points="22,45 66,20 110,45" fill="#d0ab6d"/>
    <rect x="58" y="58" width="16" height="30" rx="2" fill="#5f4129"/>
    <rect x="33" y="56" width="12" height="14" rx="2" fill="#d9d7bd"/>
    <rect x="86" y="56" width="12" height="14" rx="2" fill="#d9d7bd"/>
  </g>

  <!-- hut_large 500,0,196,132 -->
  <g transform="translate(500 0)">
    <ellipse cx="98" cy="124" rx="84" ry="10" fill="#dde59e" opacity="0.55"/>
    <rect x="30" y="56" width="136" height="62" rx="6" fill="#6f4c33"/>
    <rect x="36" y="60" width="124" height="56" rx="5" fill="#866041"/>
    <polygon points="16,60 98,16 180,60" fill="#8dcf5e"/>
    <polygon points="28,58 98,22 168,58" fill="#9fe070"/>
    <rect x="90" y="74" width="20" height="42" rx="3" fill="#4f341f"/>
    <rect x="58" y="74" width="18" height="18" rx="3" fill="#d8caa2"/>
    <rect x="122" y="74" width="18" height="18" rx="3" fill="#d8caa2"/>
  </g>

  <!-- bush 0,170,120,66 -->
  <g transform="translate(0 170)">
    <ellipse cx="60" cy="58" rx="56" ry="8" fill="#dde99a" opacity="0.6"/>
    <circle cx="28" cy="34" r="20" fill="#74b95a"/>
    <circle cx="50" cy="24" r="22" fill="#87cf64"/>
    <circle cx="74" cy="28" r="22" fill="#7cc15d"/>
    <circle cx="92" cy="36" r="18" fill="#6eaf53"/>
  </g>

  <!-- rock 132,170,76,52 -->
  <g transform="translate(132 170)">
    <ellipse cx="38" cy="46" rx="34" ry="5" fill="#d7d8cd" opacity="0.45"/>
    <ellipse cx="38" cy="28" rx="30" ry="20" fill="#8f9497"/>
    <ellipse cx="30" cy="24" rx="12" ry="8" fill="#b8bec1" opacity="0.6"/>
  </g>

  <!-- mushroom 216,170,54,62 -->
  <g transform="translate(216 170)">
    <ellipse cx="27" cy="58" rx="20" ry="4" fill="#e6de9a" opacity="0.5"/>
    <rect x="22" y="30" width="10" height="24" rx="4" fill="#d6bb8f"/>
    <ellipse cx="27" cy="28" rx="18" ry="10" fill="#d65a35"/>
    <circle cx="22" cy="26" r="2" fill="#ffd9a6"/>
    <circle cx="31" cy="24" r="2" fill="#ffd9a6"/>
  </g>

  <!-- lake 278,170,120,70 -->
  <g transform="translate(278 170)">
    <ellipse cx="60" cy="46" rx="54" ry="22" fill="#4da9cf"/>
    <ellipse cx="52" cy="42" rx="28" ry="10" fill="#87d8f2" opacity="0.7"/>
    <ellipse cx="75" cy="54" rx="18" ry="7" fill="#2f7fa9" opacity="0.55"/>
  </g>

  <!-- platform 404,170,172,66 -->
  <g transform="translate(404 170)">
    <rect x="0" y="24" width="172" height="42" rx="8" fill="#7a5c40"/>
    <rect x="0" y="8" width="172" height="26" rx="8" fill="#6eb850"/>
    <path d="M0 30 C30 14, 64 36, 98 24 S148 32, 172 22" stroke="#8eda62" stroke-width="6" fill="none"/>
  </g>

  <!-- grass_tile 0,248,128,48 -->
  <g transform="translate(0 248)">
    <rect x="0" y="18" width="128" height="30" rx="5" fill="#7a5c40"/>
    <rect x="0" y="0" width="128" height="24" rx="8" fill="#6eb850"/>
    <path d="M0 22 C24 12, 50 30, 74 20 S112 28, 128 18" stroke="#8eda62" stroke-width="6" fill="none"/>
  </g>

  <!-- crystal 138,248,72,94 -->
  <g transform="translate(138 248)">
    <ellipse cx="36" cy="84" rx="24" ry="8" fill="#d3ecff" opacity="0.45"/>
    <path d="M36 10 L54 30 L58 54 L36 82 L14 54 L18 30 Z" fill="#65b9e6"/>
    <path d="M36 18 L47 32 L44 54 L36 72 L28 54 L25 32 Z" fill="#bde9ff"/>
  </g>

  <!-- herb 220,248,64,70 -->
  <g transform="translate(220 248)">
    <ellipse cx="32" cy="64" rx="26" ry="6" fill="#dfe9a2" opacity="0.4"/>
    <path d="M32 54 C18 40, 8 34, 8 20 C18 20, 24 28, 32 54" fill="#6fb14f"/>
    <path d="M32 54 C46 40, 56 34, 56 20 C46 20, 40 28, 32 54" fill="#84cb60"/>
    <path d="M32 54 C24 40, 24 24, 32 10 C40 24, 40 40, 32 54" fill="#5fa244"/>
  </g>

  <!-- grass_patch 292,248,96,60 -->
  <g transform="translate(292 248)">
    <ellipse cx="48" cy="54" rx="40" ry="6" fill="#e4eea8" opacity="0.5"/>
    <circle cx="24" cy="34" r="18" fill="#6eb950"/>
    <circle cx="48" cy="28" r="20" fill="#84cf62"/>
    <circle cx="68" cy="34" r="18" fill="#75bc57"/>
  </g>

  <!-- water_pond 398,248,120,74 -->
  <g transform="translate(398 248)">
    <ellipse cx="60" cy="52" rx="54" ry="20" fill="#4da9cf"/>
    <ellipse cx="44" cy="48" rx="24" ry="8" fill="#87d8f2" opacity="0.7"/>
    <ellipse cx="74" cy="56" rx="18" ry="6" fill="#2f7fa9" opacity="0.55"/>
    <ellipse cx="26" cy="44" rx="18" ry="10" fill="#8f9497"/>
    <ellipse cx="22" cy="41" rx="8" ry="4" fill="#b8bec1" opacity="0.6"/>
  </g>
</svg>
